<?xml version="1.0" standalone="no"?>
<!DOCTYPE svg PUBLIC "-//W3C//DTD SVG 20010904//EN"
 "http://www.w3.org/TR/2001/REC-SVG-20010904/DTD/svg10.dtd">
<svg version="1.0" xmlns="http://www.w3.org/2000/svg"
 width="250.000000pt" height="250.000000pt" viewBox="0 0 250.000000 250.000000"
 preserveAspectRatio="xMidYMid meet">
<metadata>
Created by potrace 1.14, written by Peter Selinger 2001-2017
</metadata>
<g transform="translate(0.000000,250.000000) scale(0.100000,-0.100000)"
fill="#000000" stroke="none">
<path d="M1139 2496 c-2 -2 -26 -6 -54 -9 -117 -11 -313 -73 -425 -135 -162
-89 -345 -253 -439 -395 -112 -168 -182 -346 -209 -537 -13 -95 -6 -361 12
-410 3 -8 7 -28 10 -45 15 -99 97 -287 181 -415 62 -94 238 -271 330 -332 235
-155 461 -220 740 -213 77 2 151 6 165 9 14 3 49 11 78 17 157 32 395 148 509
246 196 171 315 342 396 568 42 119 59 220 62 375 3 147 -3 218 -31 325 -9 33
-17 67 -19 75 -6 30 -59 156 -88 210 -107 201 -271 374 -468 494 -72 43 -249
120 -300 130 -13 2 -31 7 -39 10 -8 3 -31 7 -50 10 -19 3 -46 8 -60 12 -30 7
-294 16 -301 10z"/>
</g>
</svg>
